<svg xmlns="http://www.w3.org/2000/svg" viewBox="0 0 24 24" id="quote">
  <polygon fill="#fff" points="20 3 20 16 11 16 5 19 5 16 2 16 2 3 20 3"></polygon>
  <polygon fill="#b9d9f4" points="23 4 23 19 20 19 20 22 13 19 5 19 11 16 20 16 20 4 23 4"></polygon>
  <path fill="#292932" d="M4,20.62V17H1V2H21V17H11.24ZM3,15H6v2.38L10.76,15H19V4H3Z"></path>
  <polygon fill="#0084f0" points="16 6 16 10.41 13.71 12.71 12.29 11.29 13.59 10 12 10 12 6 16 6"></polygon>
  <polygon fill="#0084f0" points="10 6 10 10.41 7.71 12.71 6.29 11.29 7.59 10 6 10 6 6 10 6"></polygon>
</svg>
